<mxfile host="app.diagrams.net" modified="2022-09-28T02:19:02.688Z" agent="5.0 (Windows NT 10.0; Win64; x64) AppleWebKit/537.36 (KHTML, like Gecko) Chrome/105.0.0.0 Safari/537.36" etag="GRt7zda03cohcpi_3sxd" version="20.3.6" type="github">
  <diagram id="tdYZeLyU5_rgm6ZOuu79" name="페이지-1">
    <mxGraphModel dx="2585" dy="1513" grid="1" gridSize="10" guides="1" tooltips="1" connect="1" arrows="1" fold="1" page="1" pageScale="1" pageWidth="827" pageHeight="1169" math="0" shadow="0">
      <root>
        <mxCell id="0" />
        <mxCell id="1" parent="0" />
        <mxCell id="osOyr8j2rlkwuVWXkvkK-152" value="Corporate Data Center" style="fillColor=#EFF0F3;strokeColor=none;dashed=0;verticalAlign=top;fontStyle=1;fontColor=#000000;fontSize=20;" vertex="1" parent="1">
          <mxGeometry x="1753" y="240" width="250" height="240" as="geometry" />
        </mxCell>
        <mxCell id="-03WtyDzt-SDoEfTEMrn-2" value="Region" style="points=[[0,0],[0.25,0],[0.5,0],[0.75,0],[1,0],[1,0.25],[1,0.5],[1,0.75],[1,1],[0.75,1],[0.5,1],[0.25,1],[0,1],[0,0.75],[0,0.5],[0,0.25]];outlineConnect=0;gradientColor=none;html=1;whiteSpace=wrap;fontSize=12;fontStyle=0;container=1;pointerEvents=0;collapsible=0;recursiveResize=0;shape=mxgraph.aws4.group;grIcon=mxgraph.aws4.group_region;strokeColor=#147EBA;fillColor=none;verticalAlign=top;align=left;spacingLeft=30;fontColor=#147EBA;dashed=1;" parent="1" vertex="1">
          <mxGeometry x="168" y="356" width="1410" height="704" as="geometry" />
        </mxCell>
        <mxCell id="-03WtyDzt-SDoEfTEMrn-5" value="" style="sketch=0;points=[[0,0,0],[0.25,0,0],[0.5,0,0],[0.75,0,0],[1,0,0],[0,1,0],[0.25,1,0],[0.5,1,0],[0.75,1,0],[1,1,0],[0,0.25,0],[0,0.5,0],[0,0.75,0],[1,0.25,0],[1,0.5,0],[1,0.75,0]];outlineConnect=0;fontColor=#232F3E;gradientColor=#945DF2;gradientDirection=north;fillColor=#5A30B5;strokeColor=#ffffff;dashed=0;verticalLabelPosition=bottom;verticalAlign=top;align=center;html=1;fontSize=12;fontStyle=0;aspect=fixed;shape=mxgraph.aws4.resourceIcon;resIcon=mxgraph.aws4.transit_gateway;" parent="-03WtyDzt-SDoEfTEMrn-2" vertex="1">
          <mxGeometry x="703" y="-58" width="78" height="78" as="geometry" />
        </mxCell>
        <mxCell id="-03WtyDzt-SDoEfTEMrn-50" value="" style="html=1;endArrow=block;elbow=vertical;startArrow=block;startFill=1;endFill=1;strokeColor=#000000;rounded=0;fontSize=14;entryX=0.75;entryY=0;entryDx=0;entryDy=0;dashed=1;exitX=0;exitY=1;exitDx=0;exitDy=0;exitPerimeter=0;" parent="-03WtyDzt-SDoEfTEMrn-2" edge="1" source="-03WtyDzt-SDoEfTEMrn-5">
          <mxGeometry width="100" relative="1" as="geometry">
            <mxPoint x="366" y="34" as="sourcePoint" />
            <mxPoint x="297.5" y="165.00000000000023" as="targetPoint" />
          </mxGeometry>
        </mxCell>
        <mxCell id="-03WtyDzt-SDoEfTEMrn-37" value="AWS Cloud" style="points=[[0,0],[0.25,0],[0.5,0],[0.75,0],[1,0],[1,0.25],[1,0.5],[1,0.75],[1,1],[0.75,1],[0.5,1],[0.25,1],[0,1],[0,0.75],[0,0.5],[0,0.25]];outlineConnect=0;gradientColor=none;html=1;whiteSpace=wrap;fontSize=12;fontStyle=0;container=1;pointerEvents=0;collapsible=0;recursiveResize=0;shape=mxgraph.aws4.group;grIcon=mxgraph.aws4.group_aws_cloud_alt;strokeColor=#232F3E;fillColor=none;verticalAlign=top;align=left;spacingLeft=30;fontColor=#232F3E;dashed=0;" parent="1" vertex="1">
          <mxGeometry x="150" y="240" width="1493.5" height="880" as="geometry" />
        </mxCell>
        <mxCell id="-03WtyDzt-SDoEfTEMrn-42" value="TGW&lt;br style=&quot;font-size: 14px;&quot;&gt;ASN-65001" style="rounded=0;whiteSpace=wrap;html=1;strokeColor=none;fillColor=none;fontSize=14;fontStyle=1" parent="-03WtyDzt-SDoEfTEMrn-37" vertex="1">
          <mxGeometry x="659.25" y="27" width="96" height="31" as="geometry" />
        </mxCell>
        <mxCell id="-03WtyDzt-SDoEfTEMrn-54" value="" style="shape=cross;whiteSpace=wrap;html=1;strokeColor=none;fontSize=14;fillColor=#990000;size=0.046511627906976744;rotation=45;" parent="-03WtyDzt-SDoEfTEMrn-37" vertex="1">
          <mxGeometry x="617" y="183" width="33" height="30" as="geometry" />
        </mxCell>
        <mxCell id="osOyr8j2rlkwuVWXkvkK-159" style="edgeStyle=none;rounded=0;orthogonalLoop=1;jettySize=auto;html=1;strokeWidth=4;fontSize=20;fontColor=#000000;endArrow=none;endFill=0;fillColor=#1ba1e2;strokeColor=#006EAF;" edge="1" parent="-03WtyDzt-SDoEfTEMrn-37" source="osOyr8j2rlkwuVWXkvkK-90" target="osOyr8j2rlkwuVWXkvkK-144">
          <mxGeometry relative="1" as="geometry" />
        </mxCell>
        <mxCell id="osOyr8j2rlkwuVWXkvkK-90" value="" style="sketch=0;outlineConnect=0;fontColor=#232F3E;gradientColor=none;fillColor=#4D27AA;strokeColor=none;dashed=0;verticalLabelPosition=bottom;verticalAlign=top;align=center;html=1;fontSize=12;fontStyle=0;aspect=fixed;pointerEvents=1;shape=mxgraph.aws4.gateway;" vertex="1" parent="-03WtyDzt-SDoEfTEMrn-37">
          <mxGeometry x="939.5" y="59" width="76" height="78" as="geometry" />
        </mxCell>
        <mxCell id="osOyr8j2rlkwuVWXkvkK-144" value="" style="sketch=0;outlineConnect=0;fontColor=#232F3E;gradientColor=none;fillColor=#4D27AA;strokeColor=none;dashed=0;verticalLabelPosition=bottom;verticalAlign=top;align=center;html=1;fontSize=12;fontStyle=0;aspect=fixed;pointerEvents=1;shape=mxgraph.aws4.router;" vertex="1" parent="-03WtyDzt-SDoEfTEMrn-37">
          <mxGeometry x="1141.5" y="59" width="78" height="78" as="geometry" />
        </mxCell>
        <mxCell id="osOyr8j2rlkwuVWXkvkK-145" value="AWS DX Router" style="rounded=0;whiteSpace=wrap;html=1;strokeColor=none;fillColor=none;fontSize=14;fontStyle=1" vertex="1" parent="-03WtyDzt-SDoEfTEMrn-37">
          <mxGeometry x="1132.5" y="27" width="128.5" height="31" as="geometry" />
        </mxCell>
        <mxCell id="osOyr8j2rlkwuVWXkvkK-155" value="" style="edgeStyle=orthogonalEdgeStyle;html=1;endArrow=block;elbow=vertical;startArrow=block;startFill=1;endFill=1;strokeColor=#005700;rounded=0;fontSize=13;fontColor=#000000;strokeWidth=4;fillColor=#008a00;" edge="1" parent="-03WtyDzt-SDoEfTEMrn-37" target="osOyr8j2rlkwuVWXkvkK-148">
          <mxGeometry width="100" relative="1" as="geometry">
            <mxPoint x="1219.5" y="97.16999999999996" as="sourcePoint" />
            <mxPoint x="1319.5" y="97.16999999999996" as="targetPoint" />
          </mxGeometry>
        </mxCell>
        <mxCell id="osOyr8j2rlkwuVWXkvkK-160" value="&lt;font color=&quot;#cc0000&quot;&gt;Transit &lt;br&gt;VIF&lt;/font&gt;" style="rounded=0;whiteSpace=wrap;html=1;strokeColor=none;fillColor=none;fontSize=14;fontStyle=1" vertex="1" parent="-03WtyDzt-SDoEfTEMrn-37">
          <mxGeometry x="1036.5" y="59" width="96" height="31" as="geometry" />
        </mxCell>
        <mxCell id="osOyr8j2rlkwuVWXkvkK-143" value="Global DXGW" style="rounded=0;whiteSpace=wrap;html=1;strokeColor=none;fillColor=none;fontSize=14;fontStyle=1" vertex="1" parent="-03WtyDzt-SDoEfTEMrn-37">
          <mxGeometry x="919.5" y="27" width="96" height="31" as="geometry" />
        </mxCell>
        <mxCell id="osOyr8j2rlkwuVWXkvkK-156" value="DX &lt;br&gt;Connection" style="rounded=0;whiteSpace=wrap;html=1;strokeColor=none;fillColor=none;fontSize=14;fontStyle=1" vertex="1" parent="-03WtyDzt-SDoEfTEMrn-37">
          <mxGeometry x="1320" y="59" width="128.5" height="31" as="geometry" />
        </mxCell>
        <mxCell id="-03WtyDzt-SDoEfTEMrn-53" value="" style="html=1;endArrow=block;elbow=vertical;startArrow=block;startFill=1;endFill=1;strokeColor=#000000;rounded=0;fontSize=14;entryX=0;entryY=0;entryDx=0;entryDy=0;dashed=1;exitX=1;exitY=1;exitDx=0;exitDy=0;exitPerimeter=0;" parent="1" source="-03WtyDzt-SDoEfTEMrn-5" target="osOyr8j2rlkwuVWXkvkK-38" edge="1">
          <mxGeometry width="100" relative="1" as="geometry">
            <mxPoint x="580" y="390" as="sourcePoint" />
            <mxPoint x="1083" y="496" as="targetPoint" />
          </mxGeometry>
        </mxCell>
        <mxCell id="-03WtyDzt-SDoEfTEMrn-57" value="" style="shape=cross;whiteSpace=wrap;html=1;strokeColor=none;fontSize=14;fillColor=#990000;size=0.046511627906976744;rotation=45;" parent="1" vertex="1">
          <mxGeometry x="1099" y="425" width="33" height="30" as="geometry" />
        </mxCell>
        <mxCell id="-03WtyDzt-SDoEfTEMrn-62" value="사용자" style="rounded=0;whiteSpace=wrap;html=1;strokeColor=none;" parent="1" vertex="1">
          <mxGeometry y="690" width="96" height="20" as="geometry" />
        </mxCell>
        <mxCell id="-03WtyDzt-SDoEfTEMrn-63" value="" style="sketch=0;outlineConnect=0;fontColor=#232F3E;gradientColor=none;fillColor=#232F3D;strokeColor=none;dashed=0;verticalLabelPosition=bottom;verticalAlign=top;align=center;html=1;fontSize=12;fontStyle=0;aspect=fixed;pointerEvents=1;shape=mxgraph.aws4.user;" parent="1" vertex="1">
          <mxGeometry x="9" y="595" width="78" height="78" as="geometry" />
        </mxCell>
        <mxCell id="-03WtyDzt-SDoEfTEMrn-74" value="" style="edgeStyle=orthogonalEdgeStyle;html=1;endArrow=none;elbow=vertical;startArrow=block;startFill=1;endFill=0;strokeColor=#545B64;rounded=0;fontSize=14;" parent="1" source="osOyr8j2rlkwuVWXkvkK-197" target="-03WtyDzt-SDoEfTEMrn-63" edge="1">
          <mxGeometry width="100" relative="1" as="geometry">
            <mxPoint x="213.00000000000023" y="580" as="sourcePoint" />
            <mxPoint x="118" y="688" as="targetPoint" />
            <Array as="points">
              <mxPoint x="108" y="613" />
              <mxPoint x="108" y="634" />
            </Array>
          </mxGeometry>
        </mxCell>
        <mxCell id="-03WtyDzt-SDoEfTEMrn-75" value="" style="edgeStyle=orthogonalEdgeStyle;html=1;endArrow=none;elbow=vertical;startArrow=block;startFill=1;endFill=0;strokeColor=#545B64;rounded=0;fontSize=14;" parent="1" source="osOyr8j2rlkwuVWXkvkK-196" target="-03WtyDzt-SDoEfTEMrn-63" edge="1">
          <mxGeometry width="100" relative="1" as="geometry">
            <mxPoint x="213.00000000000023" y="690.9999999999998" as="sourcePoint" />
            <mxPoint x="148" y="638" as="targetPoint" />
            <Array as="points">
              <mxPoint x="108" y="720" />
              <mxPoint x="108" y="634" />
            </Array>
          </mxGeometry>
        </mxCell>
        <mxCell id="osOyr8j2rlkwuVWXkvkK-55" value="" style="group" vertex="1" connectable="0" parent="1">
          <mxGeometry x="559" y="488" width="349" height="383" as="geometry" />
        </mxCell>
        <mxCell id="osOyr8j2rlkwuVWXkvkK-56" value="VPC-b" style="points=[[0,0],[0.25,0],[0.5,0],[0.75,0],[1,0],[1,0.25],[1,0.5],[1,0.75],[1,1],[0.75,1],[0.5,1],[0.25,1],[0,1],[0,0.75],[0,0.5],[0,0.25]];outlineConnect=0;gradientColor=none;html=1;whiteSpace=wrap;fontSize=12;fontStyle=0;container=1;pointerEvents=0;collapsible=0;recursiveResize=0;shape=mxgraph.aws4.group;grIcon=mxgraph.aws4.group_vpc;strokeColor=#248814;fillColor=none;verticalAlign=top;align=left;spacingLeft=30;fontColor=#AAB7B8;dashed=0;" vertex="1" parent="osOyr8j2rlkwuVWXkvkK-55">
          <mxGeometry x="59" y="33" width="290" height="292" as="geometry" />
        </mxCell>
        <mxCell id="osOyr8j2rlkwuVWXkvkK-57" value="Public subnet" style="points=[[0,0],[0.25,0],[0.5,0],[0.75,0],[1,0],[1,0.25],[1,0.5],[1,0.75],[1,1],[0.75,1],[0.5,1],[0.25,1],[0,1],[0,0.75],[0,0.5],[0,0.25]];outlineConnect=0;gradientColor=none;html=1;whiteSpace=wrap;fontSize=12;fontStyle=0;container=1;pointerEvents=0;collapsible=0;recursiveResize=0;shape=mxgraph.aws4.group;grIcon=mxgraph.aws4.group_security_group;grStroke=0;strokeColor=#248814;fillColor=#E9F3E6;verticalAlign=top;align=left;spacingLeft=30;fontColor=#248814;dashed=0;" vertex="1" parent="osOyr8j2rlkwuVWXkvkK-55">
          <mxGeometry x="139" y="55" width="130" height="109" as="geometry" />
        </mxCell>
        <mxCell id="osOyr8j2rlkwuVWXkvkK-58" value="" style="sketch=0;outlineConnect=0;fontColor=#232F3E;gradientColor=none;fillColor=#D45B07;strokeColor=none;dashed=0;verticalLabelPosition=bottom;verticalAlign=top;align=center;html=1;fontSize=12;fontStyle=0;aspect=fixed;pointerEvents=1;shape=mxgraph.aws4.instance2;" vertex="1" parent="osOyr8j2rlkwuVWXkvkK-57">
          <mxGeometry x="41" y="28" width="48" height="48" as="geometry" />
        </mxCell>
        <mxCell id="osOyr8j2rlkwuVWXkvkK-59" value="EC2 인스턴스" style="rounded=0;whiteSpace=wrap;html=1;strokeColor=none;fillColor=none;" vertex="1" parent="osOyr8j2rlkwuVWXkvkK-57">
          <mxGeometry x="5.5" y="84" width="119" height="20" as="geometry" />
        </mxCell>
        <mxCell id="osOyr8j2rlkwuVWXkvkK-60" value="Private subnet" style="points=[[0,0],[0.25,0],[0.5,0],[0.75,0],[1,0],[1,0.25],[1,0.5],[1,0.75],[1,1],[0.75,1],[0.5,1],[0.25,1],[0,1],[0,0.75],[0,0.5],[0,0.25]];outlineConnect=0;gradientColor=none;html=1;whiteSpace=wrap;fontSize=12;fontStyle=0;container=1;pointerEvents=0;collapsible=0;recursiveResize=0;shape=mxgraph.aws4.group;grIcon=mxgraph.aws4.group_security_group;grStroke=0;strokeColor=#147EBA;fillColor=#E6F2F8;verticalAlign=top;align=left;spacingLeft=30;fontColor=#147EBA;dashed=0;" vertex="1" parent="osOyr8j2rlkwuVWXkvkK-55">
          <mxGeometry x="139" y="178" width="130" height="110" as="geometry" />
        </mxCell>
        <mxCell id="osOyr8j2rlkwuVWXkvkK-61" value="" style="sketch=0;outlineConnect=0;fontColor=#232F3E;gradientColor=none;fillColor=#D45B07;strokeColor=none;dashed=0;verticalLabelPosition=bottom;verticalAlign=top;align=center;html=1;fontSize=12;fontStyle=0;aspect=fixed;pointerEvents=1;shape=mxgraph.aws4.instance2;" vertex="1" parent="osOyr8j2rlkwuVWXkvkK-60">
          <mxGeometry x="41" y="32" width="48" height="48" as="geometry" />
        </mxCell>
        <mxCell id="osOyr8j2rlkwuVWXkvkK-62" value="EC2 인스턴스" style="rounded=0;whiteSpace=wrap;html=1;strokeColor=none;fillColor=none;" vertex="1" parent="osOyr8j2rlkwuVWXkvkK-60">
          <mxGeometry x="5.5" y="90" width="119" height="20" as="geometry" />
        </mxCell>
        <mxCell id="osOyr8j2rlkwuVWXkvkK-63" style="edgeStyle=orthogonalEdgeStyle;rounded=0;orthogonalLoop=1;jettySize=auto;html=1;strokeColor=#000000;fontSize=14;endArrow=block;endFill=1;" edge="1" parent="osOyr8j2rlkwuVWXkvkK-55" source="osOyr8j2rlkwuVWXkvkK-64" target="osOyr8j2rlkwuVWXkvkK-61">
          <mxGeometry relative="1" as="geometry" />
        </mxCell>
        <mxCell id="osOyr8j2rlkwuVWXkvkK-64" value="" style="sketch=0;outlineConnect=0;fontColor=#232F3E;gradientColor=none;fillColor=#4D27AA;strokeColor=none;dashed=0;verticalLabelPosition=bottom;verticalAlign=top;align=center;html=1;fontSize=12;fontStyle=0;aspect=fixed;pointerEvents=1;shape=mxgraph.aws4.endpoints;" vertex="1" parent="osOyr8j2rlkwuVWXkvkK-55">
          <mxGeometry x="20.5" y="194" width="78" height="78" as="geometry" />
        </mxCell>
        <mxCell id="osOyr8j2rlkwuVWXkvkK-65" value="" style="sketch=0;outlineConnect=0;fontColor=#232F3E;gradientColor=none;fillColor=#4D27AA;strokeColor=none;dashed=0;verticalLabelPosition=bottom;verticalAlign=top;align=center;html=1;fontSize=12;fontStyle=0;aspect=fixed;pointerEvents=1;shape=mxgraph.aws4.internet_gateway;" vertex="1" parent="osOyr8j2rlkwuVWXkvkK-55">
          <mxGeometry x="20.5" y="86" width="78" height="78" as="geometry" />
        </mxCell>
        <mxCell id="osOyr8j2rlkwuVWXkvkK-66" value="" style="sketch=0;outlineConnect=0;fontColor=#232F3E;gradientColor=none;fillColor=#4D27AA;strokeColor=none;dashed=0;verticalLabelPosition=bottom;verticalAlign=top;align=center;html=1;fontSize=12;fontStyle=0;aspect=fixed;pointerEvents=1;shape=mxgraph.aws4.endpoints;" vertex="1" parent="osOyr8j2rlkwuVWXkvkK-55">
          <mxGeometry x="165" y="288" width="78" height="78" as="geometry" />
        </mxCell>
        <mxCell id="osOyr8j2rlkwuVWXkvkK-67" style="edgeStyle=orthogonalEdgeStyle;rounded=0;orthogonalLoop=1;jettySize=auto;html=1;strokeColor=#000000;fontSize=14;endArrow=block;endFill=1;" edge="1" parent="osOyr8j2rlkwuVWXkvkK-55" source="osOyr8j2rlkwuVWXkvkK-61" target="osOyr8j2rlkwuVWXkvkK-66">
          <mxGeometry relative="1" as="geometry" />
        </mxCell>
        <mxCell id="osOyr8j2rlkwuVWXkvkK-68" value="Availability Zone" style="fillColor=none;strokeColor=#147EBA;dashed=1;verticalAlign=top;fontStyle=0;fontColor=#147EBA;fontSize=14;" vertex="1" parent="osOyr8j2rlkwuVWXkvkK-55">
          <mxGeometry x="114" width="180" height="349" as="geometry" />
        </mxCell>
        <mxCell id="osOyr8j2rlkwuVWXkvkK-69" value="S3 엔드포인트" style="rounded=0;whiteSpace=wrap;html=1;strokeColor=none;fillColor=none;" vertex="1" parent="osOyr8j2rlkwuVWXkvkK-55">
          <mxGeometry x="144.5" y="363" width="119" height="20" as="geometry" />
        </mxCell>
        <mxCell id="osOyr8j2rlkwuVWXkvkK-70" value="SSM 엔드포인트" style="rounded=0;whiteSpace=wrap;html=1;strokeColor=none;fillColor=none;" vertex="1" parent="osOyr8j2rlkwuVWXkvkK-55">
          <mxGeometry y="280" width="119" height="20" as="geometry" />
        </mxCell>
        <mxCell id="osOyr8j2rlkwuVWXkvkK-71" value="인터넷 게이트웨이" style="rounded=0;whiteSpace=wrap;html=1;strokeColor=none;fillColor=none;" vertex="1" parent="osOyr8j2rlkwuVWXkvkK-55">
          <mxGeometry y="63" width="119" height="20" as="geometry" />
        </mxCell>
        <mxCell id="osOyr8j2rlkwuVWXkvkK-72" value="" style="group" vertex="1" connectable="0" parent="1">
          <mxGeometry x="927" y="488" width="349" height="383" as="geometry" />
        </mxCell>
        <mxCell id="osOyr8j2rlkwuVWXkvkK-73" value="VPC-c" style="points=[[0,0],[0.25,0],[0.5,0],[0.75,0],[1,0],[1,0.25],[1,0.5],[1,0.75],[1,1],[0.75,1],[0.5,1],[0.25,1],[0,1],[0,0.75],[0,0.5],[0,0.25]];outlineConnect=0;gradientColor=none;html=1;whiteSpace=wrap;fontSize=12;fontStyle=0;container=1;pointerEvents=0;collapsible=0;recursiveResize=0;shape=mxgraph.aws4.group;grIcon=mxgraph.aws4.group_vpc;strokeColor=#248814;fillColor=none;verticalAlign=top;align=left;spacingLeft=30;fontColor=#AAB7B8;dashed=0;" vertex="1" parent="osOyr8j2rlkwuVWXkvkK-72">
          <mxGeometry x="59" y="33" width="290" height="292" as="geometry" />
        </mxCell>
        <mxCell id="osOyr8j2rlkwuVWXkvkK-74" value="Public subnet" style="points=[[0,0],[0.25,0],[0.5,0],[0.75,0],[1,0],[1,0.25],[1,0.5],[1,0.75],[1,1],[0.75,1],[0.5,1],[0.25,1],[0,1],[0,0.75],[0,0.5],[0,0.25]];outlineConnect=0;gradientColor=none;html=1;whiteSpace=wrap;fontSize=12;fontStyle=0;container=1;pointerEvents=0;collapsible=0;recursiveResize=0;shape=mxgraph.aws4.group;grIcon=mxgraph.aws4.group_security_group;grStroke=0;strokeColor=#248814;fillColor=#E9F3E6;verticalAlign=top;align=left;spacingLeft=30;fontColor=#248814;dashed=0;" vertex="1" parent="osOyr8j2rlkwuVWXkvkK-72">
          <mxGeometry x="139" y="55" width="130" height="109" as="geometry" />
        </mxCell>
        <mxCell id="osOyr8j2rlkwuVWXkvkK-75" value="" style="sketch=0;outlineConnect=0;fontColor=#232F3E;gradientColor=none;fillColor=#D45B07;strokeColor=none;dashed=0;verticalLabelPosition=bottom;verticalAlign=top;align=center;html=1;fontSize=12;fontStyle=0;aspect=fixed;pointerEvents=1;shape=mxgraph.aws4.instance2;" vertex="1" parent="osOyr8j2rlkwuVWXkvkK-74">
          <mxGeometry x="41" y="28" width="48" height="48" as="geometry" />
        </mxCell>
        <mxCell id="osOyr8j2rlkwuVWXkvkK-76" value="EC2 인스턴스" style="rounded=0;whiteSpace=wrap;html=1;strokeColor=none;fillColor=none;" vertex="1" parent="osOyr8j2rlkwuVWXkvkK-74">
          <mxGeometry x="5.5" y="84" width="119" height="20" as="geometry" />
        </mxCell>
        <mxCell id="osOyr8j2rlkwuVWXkvkK-77" value="Private subnet" style="points=[[0,0],[0.25,0],[0.5,0],[0.75,0],[1,0],[1,0.25],[1,0.5],[1,0.75],[1,1],[0.75,1],[0.5,1],[0.25,1],[0,1],[0,0.75],[0,0.5],[0,0.25]];outlineConnect=0;gradientColor=none;html=1;whiteSpace=wrap;fontSize=12;fontStyle=0;container=1;pointerEvents=0;collapsible=0;recursiveResize=0;shape=mxgraph.aws4.group;grIcon=mxgraph.aws4.group_security_group;grStroke=0;strokeColor=#147EBA;fillColor=#E6F2F8;verticalAlign=top;align=left;spacingLeft=30;fontColor=#147EBA;dashed=0;" vertex="1" parent="osOyr8j2rlkwuVWXkvkK-72">
          <mxGeometry x="139" y="178" width="130" height="110" as="geometry" />
        </mxCell>
        <mxCell id="osOyr8j2rlkwuVWXkvkK-78" value="" style="sketch=0;outlineConnect=0;fontColor=#232F3E;gradientColor=none;fillColor=#D45B07;strokeColor=none;dashed=0;verticalLabelPosition=bottom;verticalAlign=top;align=center;html=1;fontSize=12;fontStyle=0;aspect=fixed;pointerEvents=1;shape=mxgraph.aws4.instance2;" vertex="1" parent="osOyr8j2rlkwuVWXkvkK-77">
          <mxGeometry x="41" y="32" width="48" height="48" as="geometry" />
        </mxCell>
        <mxCell id="osOyr8j2rlkwuVWXkvkK-79" value="EC2 인스턴스" style="rounded=0;whiteSpace=wrap;html=1;strokeColor=none;fillColor=none;" vertex="1" parent="osOyr8j2rlkwuVWXkvkK-77">
          <mxGeometry x="5.5" y="90" width="119" height="20" as="geometry" />
        </mxCell>
        <mxCell id="osOyr8j2rlkwuVWXkvkK-80" style="edgeStyle=orthogonalEdgeStyle;rounded=0;orthogonalLoop=1;jettySize=auto;html=1;strokeColor=#000000;fontSize=14;endArrow=block;endFill=1;" edge="1" parent="osOyr8j2rlkwuVWXkvkK-72" source="osOyr8j2rlkwuVWXkvkK-81" target="osOyr8j2rlkwuVWXkvkK-78">
          <mxGeometry relative="1" as="geometry" />
        </mxCell>
        <mxCell id="osOyr8j2rlkwuVWXkvkK-81" value="" style="sketch=0;outlineConnect=0;fontColor=#232F3E;gradientColor=none;fillColor=#4D27AA;strokeColor=none;dashed=0;verticalLabelPosition=bottom;verticalAlign=top;align=center;html=1;fontSize=12;fontStyle=0;aspect=fixed;pointerEvents=1;shape=mxgraph.aws4.endpoints;" vertex="1" parent="osOyr8j2rlkwuVWXkvkK-72">
          <mxGeometry x="20.5" y="194" width="78" height="78" as="geometry" />
        </mxCell>
        <mxCell id="osOyr8j2rlkwuVWXkvkK-82" value="" style="sketch=0;outlineConnect=0;fontColor=#232F3E;gradientColor=none;fillColor=#4D27AA;strokeColor=none;dashed=0;verticalLabelPosition=bottom;verticalAlign=top;align=center;html=1;fontSize=12;fontStyle=0;aspect=fixed;pointerEvents=1;shape=mxgraph.aws4.internet_gateway;" vertex="1" parent="osOyr8j2rlkwuVWXkvkK-72">
          <mxGeometry x="20.5" y="86" width="78" height="78" as="geometry" />
        </mxCell>
        <mxCell id="osOyr8j2rlkwuVWXkvkK-83" value="" style="sketch=0;outlineConnect=0;fontColor=#232F3E;gradientColor=none;fillColor=#4D27AA;strokeColor=none;dashed=0;verticalLabelPosition=bottom;verticalAlign=top;align=center;html=1;fontSize=12;fontStyle=0;aspect=fixed;pointerEvents=1;shape=mxgraph.aws4.endpoints;" vertex="1" parent="osOyr8j2rlkwuVWXkvkK-72">
          <mxGeometry x="165" y="288" width="78" height="78" as="geometry" />
        </mxCell>
        <mxCell id="osOyr8j2rlkwuVWXkvkK-84" style="edgeStyle=orthogonalEdgeStyle;rounded=0;orthogonalLoop=1;jettySize=auto;html=1;strokeColor=#000000;fontSize=14;endArrow=block;endFill=1;" edge="1" parent="osOyr8j2rlkwuVWXkvkK-72" source="osOyr8j2rlkwuVWXkvkK-78" target="osOyr8j2rlkwuVWXkvkK-83">
          <mxGeometry relative="1" as="geometry" />
        </mxCell>
        <mxCell id="osOyr8j2rlkwuVWXkvkK-85" value="Availability Zone" style="fillColor=none;strokeColor=#147EBA;dashed=1;verticalAlign=top;fontStyle=0;fontColor=#147EBA;fontSize=14;" vertex="1" parent="osOyr8j2rlkwuVWXkvkK-72">
          <mxGeometry x="114" width="180" height="349" as="geometry" />
        </mxCell>
        <mxCell id="osOyr8j2rlkwuVWXkvkK-86" value="S3 엔드포인트" style="rounded=0;whiteSpace=wrap;html=1;strokeColor=none;fillColor=none;" vertex="1" parent="osOyr8j2rlkwuVWXkvkK-72">
          <mxGeometry x="144.5" y="363" width="119" height="20" as="geometry" />
        </mxCell>
        <mxCell id="osOyr8j2rlkwuVWXkvkK-87" value="SSM 엔드포인트" style="rounded=0;whiteSpace=wrap;html=1;strokeColor=none;fillColor=none;" vertex="1" parent="osOyr8j2rlkwuVWXkvkK-72">
          <mxGeometry y="280" width="119" height="20" as="geometry" />
        </mxCell>
        <mxCell id="osOyr8j2rlkwuVWXkvkK-88" value="인터넷 게이트웨이" style="rounded=0;whiteSpace=wrap;html=1;strokeColor=none;fillColor=none;" vertex="1" parent="osOyr8j2rlkwuVWXkvkK-72">
          <mxGeometry y="63" width="119" height="20" as="geometry" />
        </mxCell>
        <mxCell id="osOyr8j2rlkwuVWXkvkK-54" value="" style="group" vertex="1" connectable="0" parent="1">
          <mxGeometry x="1269" y="488" width="349" height="383" as="geometry" />
        </mxCell>
        <mxCell id="osOyr8j2rlkwuVWXkvkK-38" value="VPC-d" style="points=[[0,0],[0.25,0],[0.5,0],[0.75,0],[1,0],[1,0.25],[1,0.5],[1,0.75],[1,1],[0.75,1],[0.5,1],[0.25,1],[0,1],[0,0.75],[0,0.5],[0,0.25]];outlineConnect=0;gradientColor=none;html=1;whiteSpace=wrap;fontSize=12;fontStyle=0;container=1;pointerEvents=0;collapsible=0;recursiveResize=0;shape=mxgraph.aws4.group;grIcon=mxgraph.aws4.group_vpc;strokeColor=#248814;fillColor=none;verticalAlign=top;align=left;spacingLeft=30;fontColor=#AAB7B8;dashed=0;" vertex="1" parent="osOyr8j2rlkwuVWXkvkK-54">
          <mxGeometry x="59" y="33" width="290" height="292" as="geometry" />
        </mxCell>
        <mxCell id="osOyr8j2rlkwuVWXkvkK-39" value="Public subnet" style="points=[[0,0],[0.25,0],[0.5,0],[0.75,0],[1,0],[1,0.25],[1,0.5],[1,0.75],[1,1],[0.75,1],[0.5,1],[0.25,1],[0,1],[0,0.75],[0,0.5],[0,0.25]];outlineConnect=0;gradientColor=none;html=1;whiteSpace=wrap;fontSize=12;fontStyle=0;container=1;pointerEvents=0;collapsible=0;recursiveResize=0;shape=mxgraph.aws4.group;grIcon=mxgraph.aws4.group_security_group;grStroke=0;strokeColor=#248814;fillColor=#E9F3E6;verticalAlign=top;align=left;spacingLeft=30;fontColor=#248814;dashed=0;" vertex="1" parent="osOyr8j2rlkwuVWXkvkK-54">
          <mxGeometry x="139" y="55" width="130" height="109" as="geometry" />
        </mxCell>
        <mxCell id="osOyr8j2rlkwuVWXkvkK-40" value="" style="sketch=0;outlineConnect=0;fontColor=#232F3E;gradientColor=none;fillColor=#D45B07;strokeColor=none;dashed=0;verticalLabelPosition=bottom;verticalAlign=top;align=center;html=1;fontSize=12;fontStyle=0;aspect=fixed;pointerEvents=1;shape=mxgraph.aws4.instance2;" vertex="1" parent="osOyr8j2rlkwuVWXkvkK-39">
          <mxGeometry x="41" y="28" width="48" height="48" as="geometry" />
        </mxCell>
        <mxCell id="osOyr8j2rlkwuVWXkvkK-41" value="EC2 인스턴스" style="rounded=0;whiteSpace=wrap;html=1;strokeColor=none;fillColor=none;" vertex="1" parent="osOyr8j2rlkwuVWXkvkK-39">
          <mxGeometry x="5.5" y="84" width="119" height="20" as="geometry" />
        </mxCell>
        <mxCell id="osOyr8j2rlkwuVWXkvkK-42" value="Private subnet" style="points=[[0,0],[0.25,0],[0.5,0],[0.75,0],[1,0],[1,0.25],[1,0.5],[1,0.75],[1,1],[0.75,1],[0.5,1],[0.25,1],[0,1],[0,0.75],[0,0.5],[0,0.25]];outlineConnect=0;gradientColor=none;html=1;whiteSpace=wrap;fontSize=12;fontStyle=0;container=1;pointerEvents=0;collapsible=0;recursiveResize=0;shape=mxgraph.aws4.group;grIcon=mxgraph.aws4.group_security_group;grStroke=0;strokeColor=#147EBA;fillColor=#E6F2F8;verticalAlign=top;align=left;spacingLeft=30;fontColor=#147EBA;dashed=0;" vertex="1" parent="osOyr8j2rlkwuVWXkvkK-54">
          <mxGeometry x="139" y="178" width="130" height="110" as="geometry" />
        </mxCell>
        <mxCell id="osOyr8j2rlkwuVWXkvkK-43" value="" style="sketch=0;outlineConnect=0;fontColor=#232F3E;gradientColor=none;fillColor=#D45B07;strokeColor=none;dashed=0;verticalLabelPosition=bottom;verticalAlign=top;align=center;html=1;fontSize=12;fontStyle=0;aspect=fixed;pointerEvents=1;shape=mxgraph.aws4.instance2;" vertex="1" parent="osOyr8j2rlkwuVWXkvkK-42">
          <mxGeometry x="41" y="32" width="48" height="48" as="geometry" />
        </mxCell>
        <mxCell id="osOyr8j2rlkwuVWXkvkK-44" value="EC2 인스턴스" style="rounded=0;whiteSpace=wrap;html=1;strokeColor=none;fillColor=none;" vertex="1" parent="osOyr8j2rlkwuVWXkvkK-42">
          <mxGeometry x="5.5" y="90" width="119" height="20" as="geometry" />
        </mxCell>
        <mxCell id="osOyr8j2rlkwuVWXkvkK-45" style="edgeStyle=orthogonalEdgeStyle;rounded=0;orthogonalLoop=1;jettySize=auto;html=1;strokeColor=#000000;fontSize=14;endArrow=block;endFill=1;" edge="1" parent="osOyr8j2rlkwuVWXkvkK-54" source="osOyr8j2rlkwuVWXkvkK-46" target="osOyr8j2rlkwuVWXkvkK-43">
          <mxGeometry relative="1" as="geometry" />
        </mxCell>
        <mxCell id="osOyr8j2rlkwuVWXkvkK-46" value="" style="sketch=0;outlineConnect=0;fontColor=#232F3E;gradientColor=none;fillColor=#4D27AA;strokeColor=none;dashed=0;verticalLabelPosition=bottom;verticalAlign=top;align=center;html=1;fontSize=12;fontStyle=0;aspect=fixed;pointerEvents=1;shape=mxgraph.aws4.endpoints;" vertex="1" parent="osOyr8j2rlkwuVWXkvkK-54">
          <mxGeometry x="20.5" y="194" width="78" height="78" as="geometry" />
        </mxCell>
        <mxCell id="osOyr8j2rlkwuVWXkvkK-47" value="" style="sketch=0;outlineConnect=0;fontColor=#232F3E;gradientColor=none;fillColor=#4D27AA;strokeColor=none;dashed=0;verticalLabelPosition=bottom;verticalAlign=top;align=center;html=1;fontSize=12;fontStyle=0;aspect=fixed;pointerEvents=1;shape=mxgraph.aws4.internet_gateway;" vertex="1" parent="osOyr8j2rlkwuVWXkvkK-54">
          <mxGeometry x="20.5" y="86" width="78" height="78" as="geometry" />
        </mxCell>
        <mxCell id="osOyr8j2rlkwuVWXkvkK-48" value="" style="sketch=0;outlineConnect=0;fontColor=#232F3E;gradientColor=none;fillColor=#4D27AA;strokeColor=none;dashed=0;verticalLabelPosition=bottom;verticalAlign=top;align=center;html=1;fontSize=12;fontStyle=0;aspect=fixed;pointerEvents=1;shape=mxgraph.aws4.endpoints;" vertex="1" parent="osOyr8j2rlkwuVWXkvkK-54">
          <mxGeometry x="165" y="288" width="78" height="78" as="geometry" />
        </mxCell>
        <mxCell id="osOyr8j2rlkwuVWXkvkK-49" style="edgeStyle=orthogonalEdgeStyle;rounded=0;orthogonalLoop=1;jettySize=auto;html=1;strokeColor=#000000;fontSize=14;endArrow=block;endFill=1;" edge="1" parent="osOyr8j2rlkwuVWXkvkK-54" source="osOyr8j2rlkwuVWXkvkK-43" target="osOyr8j2rlkwuVWXkvkK-48">
          <mxGeometry relative="1" as="geometry" />
        </mxCell>
        <mxCell id="osOyr8j2rlkwuVWXkvkK-50" value="Availability Zone" style="fillColor=none;strokeColor=#147EBA;dashed=1;verticalAlign=top;fontStyle=0;fontColor=#147EBA;fontSize=14;" vertex="1" parent="osOyr8j2rlkwuVWXkvkK-54">
          <mxGeometry x="114" width="180" height="349" as="geometry" />
        </mxCell>
        <mxCell id="osOyr8j2rlkwuVWXkvkK-51" value="S3 엔드포인트" style="rounded=0;whiteSpace=wrap;html=1;strokeColor=none;fillColor=none;" vertex="1" parent="osOyr8j2rlkwuVWXkvkK-54">
          <mxGeometry x="144.5" y="363" width="119" height="20" as="geometry" />
        </mxCell>
        <mxCell id="osOyr8j2rlkwuVWXkvkK-52" value="SSM 엔드포인트" style="rounded=0;whiteSpace=wrap;html=1;strokeColor=none;fillColor=none;" vertex="1" parent="osOyr8j2rlkwuVWXkvkK-54">
          <mxGeometry y="280" width="119" height="20" as="geometry" />
        </mxCell>
        <mxCell id="osOyr8j2rlkwuVWXkvkK-53" value="인터넷 게이트웨이" style="rounded=0;whiteSpace=wrap;html=1;strokeColor=none;fillColor=none;" vertex="1" parent="osOyr8j2rlkwuVWXkvkK-54">
          <mxGeometry y="63" width="119" height="20" as="geometry" />
        </mxCell>
        <mxCell id="-03WtyDzt-SDoEfTEMrn-51" value="" style="html=1;endArrow=block;elbow=vertical;startArrow=block;startFill=1;endFill=1;strokeColor=#000000;rounded=0;fontSize=14;entryX=0;entryY=0;entryDx=0;entryDy=0;dashed=1;exitX=0.5;exitY=1;exitDx=0;exitDy=0;exitPerimeter=0;" parent="1" source="-03WtyDzt-SDoEfTEMrn-5" target="osOyr8j2rlkwuVWXkvkK-56" edge="1">
          <mxGeometry width="100" relative="1" as="geometry">
            <mxPoint x="577.3617021276596" y="384" as="sourcePoint" />
            <mxPoint x="662" y="486" as="targetPoint" />
          </mxGeometry>
        </mxCell>
        <mxCell id="osOyr8j2rlkwuVWXkvkK-148" value="" style="sketch=0;outlineConnect=0;fontColor=#232F3E;gradientColor=none;fillColor=#4D27AA;strokeColor=none;dashed=0;verticalLabelPosition=bottom;verticalAlign=top;align=center;html=1;fontSize=12;fontStyle=0;aspect=fixed;pointerEvents=1;shape=mxgraph.aws4.router;" vertex="1" parent="1">
          <mxGeometry x="1719" y="298" width="78" height="78" as="geometry" />
        </mxCell>
        <mxCell id="osOyr8j2rlkwuVWXkvkK-149" value="Customer&lt;br&gt;Router" style="rounded=0;whiteSpace=wrap;html=1;strokeColor=none;fillColor=none;fontSize=14;fontStyle=1" vertex="1" parent="1">
          <mxGeometry x="1775.5" y="321.5" width="128.5" height="31" as="geometry" />
        </mxCell>
        <mxCell id="-03WtyDzt-SDoEfTEMrn-52" value="" style="html=1;endArrow=block;elbow=vertical;startArrow=block;startFill=1;endFill=1;strokeColor=#000000;rounded=0;fontSize=14;entryX=0;entryY=0;entryDx=0;entryDy=0;dashed=1;exitX=0.75;exitY=1;exitDx=0;exitDy=0;exitPerimeter=0;" parent="1" source="-03WtyDzt-SDoEfTEMrn-5" target="osOyr8j2rlkwuVWXkvkK-73" edge="1">
          <mxGeometry width="100" relative="1" as="geometry">
            <mxPoint x="570" y="390" as="sourcePoint" />
            <mxPoint x="852" y="486" as="targetPoint" />
          </mxGeometry>
        </mxCell>
        <mxCell id="osOyr8j2rlkwuVWXkvkK-150" value="" style="sketch=0;outlineConnect=0;fontColor=#232F3E;gradientColor=none;fillColor=#232F3D;strokeColor=none;dashed=0;verticalLabelPosition=bottom;verticalAlign=top;align=center;html=1;fontSize=12;fontStyle=0;aspect=fixed;pointerEvents=1;shape=mxgraph.aws4.traditional_server;" vertex="1" parent="1">
          <mxGeometry x="1813" y="437" width="45" height="78" as="geometry" />
        </mxCell>
        <mxCell id="osOyr8j2rlkwuVWXkvkK-151" value="" style="sketch=0;outlineConnect=0;fontColor=#232F3E;gradientColor=none;fillColor=#232F3D;strokeColor=none;dashed=0;verticalLabelPosition=bottom;verticalAlign=top;align=center;html=1;fontSize=12;fontStyle=0;aspect=fixed;pointerEvents=1;shape=mxgraph.aws4.traditional_server;" vertex="1" parent="1">
          <mxGeometry x="1893" y="437" width="45" height="78" as="geometry" />
        </mxCell>
        <mxCell id="osOyr8j2rlkwuVWXkvkK-154" value="" style="edgeStyle=orthogonalEdgeStyle;html=1;endArrow=block;elbow=vertical;startArrow=block;startFill=1;endFill=1;strokeColor=#545B64;rounded=0;fontSize=13;fontColor=#000000;" edge="1" parent="1">
          <mxGeometry width="100" relative="1" as="geometry">
            <mxPoint x="870" y="500" as="sourcePoint" />
            <mxPoint x="970" y="500" as="targetPoint" />
          </mxGeometry>
        </mxCell>
        <mxCell id="osOyr8j2rlkwuVWXkvkK-164" style="edgeStyle=none;rounded=0;orthogonalLoop=1;jettySize=auto;html=1;strokeWidth=4;fontSize=20;fontColor=#CC0000;endArrow=none;endFill=0;strokeColor=#CC0000;" edge="1" parent="1" source="-03WtyDzt-SDoEfTEMrn-5" target="osOyr8j2rlkwuVWXkvkK-90">
          <mxGeometry relative="1" as="geometry" />
        </mxCell>
        <mxCell id="osOyr8j2rlkwuVWXkvkK-165" value="Office Building" style="fillColor=#EFF0F3;strokeColor=none;dashed=0;verticalAlign=top;fontStyle=1;fontColor=#000000;fontSize=20;" vertex="1" parent="1">
          <mxGeometry x="1753" y="17" width="250" height="210" as="geometry" />
        </mxCell>
        <mxCell id="osOyr8j2rlkwuVWXkvkK-166" value="" style="sketch=0;outlineConnect=0;fontColor=#232F3E;gradientColor=none;fillColor=#4D27AA;strokeColor=none;dashed=0;verticalLabelPosition=bottom;verticalAlign=top;align=center;html=1;fontSize=12;fontStyle=0;aspect=fixed;pointerEvents=1;shape=mxgraph.aws4.router;" vertex="1" parent="1">
          <mxGeometry x="1719" y="54" width="78" height="78" as="geometry" />
        </mxCell>
        <mxCell id="osOyr8j2rlkwuVWXkvkK-167" value="Customer &lt;br&gt;gateway" style="rounded=0;whiteSpace=wrap;html=1;strokeColor=none;fillColor=none;fontSize=14;fontStyle=1" vertex="1" parent="1">
          <mxGeometry x="1772" y="76" width="128.5" height="31" as="geometry" />
        </mxCell>
        <mxCell id="osOyr8j2rlkwuVWXkvkK-170" value="" style="sketch=0;outlineConnect=0;fontColor=#232F3E;gradientColor=none;fillColor=#232F3D;strokeColor=none;dashed=0;verticalLabelPosition=bottom;verticalAlign=top;align=center;html=1;fontSize=12;fontStyle=0;aspect=fixed;pointerEvents=1;shape=mxgraph.aws4.client;" vertex="1" parent="1">
          <mxGeometry x="1797" y="152" width="48.24" height="47" as="geometry" />
        </mxCell>
        <mxCell id="osOyr8j2rlkwuVWXkvkK-178" value="" style="sketch=0;outlineConnect=0;fontColor=#232F3E;gradientColor=none;fillColor=#232F3D;strokeColor=none;dashed=0;verticalLabelPosition=bottom;verticalAlign=top;align=center;html=1;fontSize=12;fontStyle=0;aspect=fixed;pointerEvents=1;shape=mxgraph.aws4.client;" vertex="1" parent="1">
          <mxGeometry x="1891.38" y="152" width="48.24" height="47" as="geometry" />
        </mxCell>
        <mxCell id="osOyr8j2rlkwuVWXkvkK-179" value="" style="sketch=0;outlineConnect=0;fontColor=#232F3E;gradientColor=none;fillColor=#4D27AA;strokeColor=none;dashed=0;verticalLabelPosition=bottom;verticalAlign=top;align=center;html=1;fontSize=12;fontStyle=0;aspect=fixed;pointerEvents=1;shape=mxgraph.aws4.vpn_connection;" vertex="1" parent="1">
          <mxGeometry x="875" y="54" width="70" height="78" as="geometry" />
        </mxCell>
        <mxCell id="osOyr8j2rlkwuVWXkvkK-180" style="edgeStyle=none;rounded=0;orthogonalLoop=1;jettySize=auto;html=1;strokeWidth=4;fontSize=20;fontColor=#CC0000;endArrow=none;endFill=0;strokeColor=#CC0000;exitX=0.5;exitY=0;exitDx=0;exitDy=0;exitPerimeter=0;" edge="1" parent="1" source="-03WtyDzt-SDoEfTEMrn-5" target="osOyr8j2rlkwuVWXkvkK-179">
          <mxGeometry relative="1" as="geometry">
            <mxPoint x="905" y="248" as="sourcePoint" />
            <mxPoint x="905" y="128.90862944162438" as="targetPoint" />
          </mxGeometry>
        </mxCell>
        <mxCell id="osOyr8j2rlkwuVWXkvkK-184" style="edgeStyle=none;rounded=0;orthogonalLoop=1;jettySize=auto;html=1;strokeWidth=4;fontSize=20;fontColor=#CC0000;endArrow=none;endFill=0;strokeColor=#CC0000;" edge="1" parent="1" source="osOyr8j2rlkwuVWXkvkK-179" target="osOyr8j2rlkwuVWXkvkK-166">
          <mxGeometry relative="1" as="geometry">
            <mxPoint x="915" y="258" as="sourcePoint" />
            <mxPoint x="915" y="138.90862944162427" as="targetPoint" />
          </mxGeometry>
        </mxCell>
        <mxCell id="osOyr8j2rlkwuVWXkvkK-185" style="edgeStyle=none;rounded=0;orthogonalLoop=1;jettySize=auto;html=1;strokeWidth=4;fontSize=20;fontColor=#CC0000;endArrow=none;endFill=0;strokeColor=#CC0000;" edge="1" parent="1">
          <mxGeometry relative="1" as="geometry">
            <mxPoint x="943" y="103" as="sourcePoint" />
            <mxPoint x="1717" y="103" as="targetPoint" />
          </mxGeometry>
        </mxCell>
        <mxCell id="osOyr8j2rlkwuVWXkvkK-186" style="edgeStyle=none;rounded=0;orthogonalLoop=1;jettySize=auto;html=1;strokeWidth=4;fontSize=20;fontColor=#CC0000;endArrow=none;endFill=0;strokeColor=#CC0000;exitX=0.5;exitY=0;exitDx=0;exitDy=0;exitPerimeter=0;" edge="1" parent="1">
          <mxGeometry relative="1" as="geometry">
            <mxPoint x="918" y="297" as="sourcePoint" />
            <mxPoint x="918" y="130.90862944162427" as="targetPoint" />
          </mxGeometry>
        </mxCell>
        <mxCell id="osOyr8j2rlkwuVWXkvkK-187" value="" style="group" vertex="1" connectable="0" parent="1">
          <mxGeometry x="197" y="488" width="349" height="383" as="geometry" />
        </mxCell>
        <mxCell id="osOyr8j2rlkwuVWXkvkK-188" value="VPC-a" style="points=[[0,0],[0.25,0],[0.5,0],[0.75,0],[1,0],[1,0.25],[1,0.5],[1,0.75],[1,1],[0.75,1],[0.5,1],[0.25,1],[0,1],[0,0.75],[0,0.5],[0,0.25]];outlineConnect=0;gradientColor=none;html=1;whiteSpace=wrap;fontSize=12;fontStyle=0;container=1;pointerEvents=0;collapsible=0;recursiveResize=0;shape=mxgraph.aws4.group;grIcon=mxgraph.aws4.group_vpc;strokeColor=#248814;fillColor=none;verticalAlign=top;align=left;spacingLeft=30;fontColor=#AAB7B8;dashed=0;" vertex="1" parent="osOyr8j2rlkwuVWXkvkK-187">
          <mxGeometry x="59" y="33" width="290" height="292" as="geometry" />
        </mxCell>
        <mxCell id="osOyr8j2rlkwuVWXkvkK-189" value="Public subnet" style="points=[[0,0],[0.25,0],[0.5,0],[0.75,0],[1,0],[1,0.25],[1,0.5],[1,0.75],[1,1],[0.75,1],[0.5,1],[0.25,1],[0,1],[0,0.75],[0,0.5],[0,0.25]];outlineConnect=0;gradientColor=none;html=1;whiteSpace=wrap;fontSize=12;fontStyle=0;container=1;pointerEvents=0;collapsible=0;recursiveResize=0;shape=mxgraph.aws4.group;grIcon=mxgraph.aws4.group_security_group;grStroke=0;strokeColor=#248814;fillColor=#E9F3E6;verticalAlign=top;align=left;spacingLeft=30;fontColor=#248814;dashed=0;" vertex="1" parent="osOyr8j2rlkwuVWXkvkK-187">
          <mxGeometry x="139" y="55" width="130" height="109" as="geometry" />
        </mxCell>
        <mxCell id="osOyr8j2rlkwuVWXkvkK-190" value="" style="sketch=0;outlineConnect=0;fontColor=#232F3E;gradientColor=none;fillColor=#D45B07;strokeColor=none;dashed=0;verticalLabelPosition=bottom;verticalAlign=top;align=center;html=1;fontSize=12;fontStyle=0;aspect=fixed;pointerEvents=1;shape=mxgraph.aws4.instance2;" vertex="1" parent="osOyr8j2rlkwuVWXkvkK-189">
          <mxGeometry x="41" y="28" width="48" height="48" as="geometry" />
        </mxCell>
        <mxCell id="osOyr8j2rlkwuVWXkvkK-191" value="EC2 인스턴스" style="rounded=0;whiteSpace=wrap;html=1;strokeColor=none;fillColor=none;" vertex="1" parent="osOyr8j2rlkwuVWXkvkK-189">
          <mxGeometry x="5.5" y="84" width="119" height="20" as="geometry" />
        </mxCell>
        <mxCell id="osOyr8j2rlkwuVWXkvkK-192" value="Private subnet" style="points=[[0,0],[0.25,0],[0.5,0],[0.75,0],[1,0],[1,0.25],[1,0.5],[1,0.75],[1,1],[0.75,1],[0.5,1],[0.25,1],[0,1],[0,0.75],[0,0.5],[0,0.25]];outlineConnect=0;gradientColor=none;html=1;whiteSpace=wrap;fontSize=12;fontStyle=0;container=1;pointerEvents=0;collapsible=0;recursiveResize=0;shape=mxgraph.aws4.group;grIcon=mxgraph.aws4.group_security_group;grStroke=0;strokeColor=#147EBA;fillColor=#E6F2F8;verticalAlign=top;align=left;spacingLeft=30;fontColor=#147EBA;dashed=0;" vertex="1" parent="osOyr8j2rlkwuVWXkvkK-187">
          <mxGeometry x="139" y="178" width="130" height="110" as="geometry" />
        </mxCell>
        <mxCell id="osOyr8j2rlkwuVWXkvkK-193" value="" style="sketch=0;outlineConnect=0;fontColor=#232F3E;gradientColor=none;fillColor=#D45B07;strokeColor=none;dashed=0;verticalLabelPosition=bottom;verticalAlign=top;align=center;html=1;fontSize=12;fontStyle=0;aspect=fixed;pointerEvents=1;shape=mxgraph.aws4.instance2;" vertex="1" parent="osOyr8j2rlkwuVWXkvkK-192">
          <mxGeometry x="41" y="32" width="48" height="48" as="geometry" />
        </mxCell>
        <mxCell id="osOyr8j2rlkwuVWXkvkK-194" value="EC2 인스턴스" style="rounded=0;whiteSpace=wrap;html=1;strokeColor=none;fillColor=none;" vertex="1" parent="osOyr8j2rlkwuVWXkvkK-192">
          <mxGeometry x="5.5" y="90" width="119" height="20" as="geometry" />
        </mxCell>
        <mxCell id="osOyr8j2rlkwuVWXkvkK-195" style="edgeStyle=orthogonalEdgeStyle;rounded=0;orthogonalLoop=1;jettySize=auto;html=1;strokeColor=#000000;fontSize=14;endArrow=block;endFill=1;" edge="1" parent="osOyr8j2rlkwuVWXkvkK-187" source="osOyr8j2rlkwuVWXkvkK-196" target="osOyr8j2rlkwuVWXkvkK-193">
          <mxGeometry relative="1" as="geometry" />
        </mxCell>
        <mxCell id="osOyr8j2rlkwuVWXkvkK-196" value="" style="sketch=0;outlineConnect=0;fontColor=#232F3E;gradientColor=none;fillColor=#4D27AA;strokeColor=none;dashed=0;verticalLabelPosition=bottom;verticalAlign=top;align=center;html=1;fontSize=12;fontStyle=0;aspect=fixed;pointerEvents=1;shape=mxgraph.aws4.endpoints;" vertex="1" parent="osOyr8j2rlkwuVWXkvkK-187">
          <mxGeometry x="20.5" y="194" width="78" height="78" as="geometry" />
        </mxCell>
        <mxCell id="osOyr8j2rlkwuVWXkvkK-197" value="" style="sketch=0;outlineConnect=0;fontColor=#232F3E;gradientColor=none;fillColor=#4D27AA;strokeColor=none;dashed=0;verticalLabelPosition=bottom;verticalAlign=top;align=center;html=1;fontSize=12;fontStyle=0;aspect=fixed;pointerEvents=1;shape=mxgraph.aws4.internet_gateway;" vertex="1" parent="osOyr8j2rlkwuVWXkvkK-187">
          <mxGeometry x="20.5" y="86" width="78" height="78" as="geometry" />
        </mxCell>
        <mxCell id="osOyr8j2rlkwuVWXkvkK-198" value="" style="sketch=0;outlineConnect=0;fontColor=#232F3E;gradientColor=none;fillColor=#4D27AA;strokeColor=none;dashed=0;verticalLabelPosition=bottom;verticalAlign=top;align=center;html=1;fontSize=12;fontStyle=0;aspect=fixed;pointerEvents=1;shape=mxgraph.aws4.endpoints;" vertex="1" parent="osOyr8j2rlkwuVWXkvkK-187">
          <mxGeometry x="165" y="288" width="78" height="78" as="geometry" />
        </mxCell>
        <mxCell id="osOyr8j2rlkwuVWXkvkK-199" style="edgeStyle=orthogonalEdgeStyle;rounded=0;orthogonalLoop=1;jettySize=auto;html=1;strokeColor=#000000;fontSize=14;endArrow=block;endFill=1;" edge="1" parent="osOyr8j2rlkwuVWXkvkK-187" source="osOyr8j2rlkwuVWXkvkK-193" target="osOyr8j2rlkwuVWXkvkK-198">
          <mxGeometry relative="1" as="geometry" />
        </mxCell>
        <mxCell id="osOyr8j2rlkwuVWXkvkK-200" value="Availability Zone" style="fillColor=none;strokeColor=#147EBA;dashed=1;verticalAlign=top;fontStyle=0;fontColor=#147EBA;fontSize=14;" vertex="1" parent="osOyr8j2rlkwuVWXkvkK-187">
          <mxGeometry x="114" width="180" height="349" as="geometry" />
        </mxCell>
        <mxCell id="osOyr8j2rlkwuVWXkvkK-201" value="S3 엔드포인트" style="rounded=0;whiteSpace=wrap;html=1;strokeColor=none;fillColor=none;" vertex="1" parent="osOyr8j2rlkwuVWXkvkK-187">
          <mxGeometry x="144.5" y="363" width="119" height="20" as="geometry" />
        </mxCell>
        <mxCell id="osOyr8j2rlkwuVWXkvkK-202" value="SSM 엔드포인트" style="rounded=0;whiteSpace=wrap;html=1;strokeColor=none;fillColor=none;" vertex="1" parent="osOyr8j2rlkwuVWXkvkK-187">
          <mxGeometry y="280" width="119" height="20" as="geometry" />
        </mxCell>
        <mxCell id="osOyr8j2rlkwuVWXkvkK-203" value="인터넷 게이트웨이" style="rounded=0;whiteSpace=wrap;html=1;strokeColor=none;fillColor=none;" vertex="1" parent="osOyr8j2rlkwuVWXkvkK-187">
          <mxGeometry y="63" width="119" height="20" as="geometry" />
        </mxCell>
        <mxCell id="osOyr8j2rlkwuVWXkvkK-204" value="IPsec VPN" style="rounded=0;whiteSpace=wrap;html=1;strokeColor=#A50040;fillColor=#d80073;fontSize=14;fontStyle=1;fontColor=#FFFFFF;" vertex="1" parent="1">
          <mxGeometry x="1300" y="54" width="96" height="31" as="geometry" />
        </mxCell>
        <mxCell id="osOyr8j2rlkwuVWXkvkK-17" style="edgeStyle=orthogonalEdgeStyle;rounded=0;orthogonalLoop=1;jettySize=auto;html=1;" edge="1" parent="1" source="-03WtyDzt-SDoEfTEMrn-87" target="-03WtyDzt-SDoEfTEMrn-92">
          <mxGeometry relative="1" as="geometry">
            <Array as="points">
              <mxPoint x="785" y="940" />
            </Array>
          </mxGeometry>
        </mxCell>
        <mxCell id="-03WtyDzt-SDoEfTEMrn-87" value="" style="sketch=0;outlineConnect=0;fontColor=#232F3E;gradientColor=none;fillColor=#BF0816;strokeColor=none;dashed=0;verticalLabelPosition=bottom;verticalAlign=top;align=center;html=1;fontSize=12;fontStyle=0;aspect=fixed;pointerEvents=1;shape=mxgraph.aws4.permissions;" parent="1" vertex="1">
          <mxGeometry x="895.1" y="911" width="45.31" height="57" as="geometry" />
        </mxCell>
        <mxCell id="-03WtyDzt-SDoEfTEMrn-90" value="엔드포인트 정책" style="rounded=0;whiteSpace=wrap;html=1;strokeColor=none;fillColor=none;" parent="1" vertex="1">
          <mxGeometry x="858.25" y="976" width="119" height="20" as="geometry" />
        </mxCell>
        <mxCell id="-03WtyDzt-SDoEfTEMrn-92" value="" style="sketch=0;outlineConnect=0;fontColor=#232F3E;gradientColor=none;fillColor=#3F8624;strokeColor=none;dashed=0;verticalLabelPosition=bottom;verticalAlign=top;align=center;html=1;fontSize=12;fontStyle=0;aspect=fixed;pointerEvents=1;shape=mxgraph.aws4.bucket;" parent="1" vertex="1">
          <mxGeometry x="751.91" y="966" width="66.69" height="69.36" as="geometry" />
        </mxCell>
        <mxCell id="-03WtyDzt-SDoEfTEMrn-93" value="S3 버킷" style="rounded=0;whiteSpace=wrap;html=1;strokeColor=none;fillColor=none;" parent="1" vertex="1">
          <mxGeometry x="725.755" y="1035.3600000000001" width="119" height="20" as="geometry" />
        </mxCell>
        <mxCell id="-03WtyDzt-SDoEfTEMrn-96" value="" style="shape=cross;whiteSpace=wrap;html=1;strokeColor=none;fontSize=14;fillColor=#990000;size=0.046511627906976744;rotation=45;" parent="1" vertex="1">
          <mxGeometry x="961.5" y="924.5" width="33" height="30" as="geometry" />
        </mxCell>
        <mxCell id="osOyr8j2rlkwuVWXkvkK-13" value="" style="sketch=0;outlineConnect=0;fontColor=#232F3E;gradientColor=none;fillColor=#3F8624;strokeColor=none;dashed=0;verticalLabelPosition=bottom;verticalAlign=top;align=center;html=1;fontSize=12;fontStyle=0;aspect=fixed;pointerEvents=1;shape=mxgraph.aws4.bucket;" vertex="1" parent="1">
          <mxGeometry x="1002.41" y="966" width="66.69" height="69.36" as="geometry" />
        </mxCell>
        <mxCell id="osOyr8j2rlkwuVWXkvkK-14" value="S3 버킷" style="rounded=0;whiteSpace=wrap;html=1;strokeColor=none;fillColor=none;" vertex="1" parent="1">
          <mxGeometry x="976.255" y="1035.3600000000001" width="119" height="20" as="geometry" />
        </mxCell>
        <mxCell id="osOyr8j2rlkwuVWXkvkK-16" style="edgeStyle=orthogonalEdgeStyle;rounded=0;orthogonalLoop=1;jettySize=auto;html=1;" edge="1" parent="1" source="-03WtyDzt-SDoEfTEMrn-87" target="osOyr8j2rlkwuVWXkvkK-13">
          <mxGeometry relative="1" as="geometry">
            <Array as="points">
              <mxPoint x="1036" y="940" />
            </Array>
          </mxGeometry>
        </mxCell>
        <mxCell id="osOyr8j2rlkwuVWXkvkK-19" style="edgeStyle=orthogonalEdgeStyle;rounded=0;orthogonalLoop=1;jettySize=auto;html=1;" edge="1" parent="1" source="osOyr8j2rlkwuVWXkvkK-198" target="-03WtyDzt-SDoEfTEMrn-87">
          <mxGeometry relative="1" as="geometry">
            <mxPoint x="406" y="824.0000000000002" as="sourcePoint" />
            <Array as="points">
              <mxPoint x="406" y="890" />
              <mxPoint x="900" y="890" />
            </Array>
          </mxGeometry>
        </mxCell>
        <mxCell id="osOyr8j2rlkwuVWXkvkK-207" style="edgeStyle=orthogonalEdgeStyle;rounded=0;orthogonalLoop=1;jettySize=auto;html=1;exitX=0.5;exitY=0;exitDx=0;exitDy=0;" edge="1" parent="1" source="osOyr8j2rlkwuVWXkvkK-51" target="-03WtyDzt-SDoEfTEMrn-87">
          <mxGeometry relative="1" as="geometry">
            <mxPoint x="1160.0026315789476" y="1019.9999999999998" as="sourcePoint" />
            <mxPoint x="1672.0026315789476" y="1077.221587123684" as="targetPoint" />
            <Array as="points">
              <mxPoint x="1470" y="851" />
              <mxPoint x="1470" y="890" />
              <mxPoint x="930" y="890" />
            </Array>
          </mxGeometry>
        </mxCell>
        <mxCell id="osOyr8j2rlkwuVWXkvkK-208" style="edgeStyle=orthogonalEdgeStyle;rounded=0;orthogonalLoop=1;jettySize=auto;html=1;exitX=0.5;exitY=0;exitDx=0;exitDy=0;" edge="1" parent="1" source="osOyr8j2rlkwuVWXkvkK-69" target="-03WtyDzt-SDoEfTEMrn-87">
          <mxGeometry relative="1" as="geometry">
            <mxPoint x="1483" y="861" as="sourcePoint" />
            <mxPoint x="928.0526315789475" y="921.221587123684" as="targetPoint" />
            <Array as="points">
              <mxPoint x="763" y="870" />
              <mxPoint x="910" y="870" />
            </Array>
          </mxGeometry>
        </mxCell>
        <mxCell id="osOyr8j2rlkwuVWXkvkK-210" style="edgeStyle=orthogonalEdgeStyle;rounded=0;orthogonalLoop=1;jettySize=auto;html=1;exitX=0.415;exitY=-0.034;exitDx=0;exitDy=0;exitPerimeter=0;" edge="1" parent="1" source="osOyr8j2rlkwuVWXkvkK-86" target="-03WtyDzt-SDoEfTEMrn-87">
          <mxGeometry relative="1" as="geometry">
            <mxPoint x="1167" y="950" as="sourcePoint" />
            <mxPoint x="1314.0526315789475" y="1010.221587123684" as="targetPoint" />
            <Array as="points">
              <mxPoint x="1121" y="870" />
              <mxPoint x="918" y="870" />
            </Array>
          </mxGeometry>
        </mxCell>
      </root>
    </mxGraphModel>
  </diagram>
</mxfile>
